<mxfile host="app.diagrams.net" agent="Mozilla/5.0 (Windows NT 10.0; Win64; x64) AppleWebKit/537.36 (KHTML, like Gecko) Chrome/135.0.0.0 Safari/537.36" version="26.2.12">
  <diagram name="Page-1" id="PGyEtpBHGc2rgO0zSy-d">
    <mxGraphModel dx="1428" dy="743" grid="0" gridSize="10" guides="1" tooltips="1" connect="1" arrows="1" fold="1" page="1" pageScale="1" pageWidth="827" pageHeight="1169" math="0" shadow="0">
      <root>
        <mxCell id="0" />
        <mxCell id="1" parent="0" />
        <mxCell id="Ysg3iqIvXeeo9fuWZfi6-1" value="" style="whiteSpace=wrap;html=1;aspect=fixed;" vertex="1" parent="1">
          <mxGeometry x="80" y="180" width="200" height="200" as="geometry" />
        </mxCell>
        <mxCell id="Ysg3iqIvXeeo9fuWZfi6-2" value="" style="whiteSpace=wrap;html=1;aspect=fixed;" vertex="1" parent="1">
          <mxGeometry x="520" y="180" width="200" height="200" as="geometry" />
        </mxCell>
        <mxCell id="Ysg3iqIvXeeo9fuWZfi6-3" value="" style="endArrow=none;html=1;rounded=0;entryX=0.5;entryY=1;entryDx=0;entryDy=0;exitX=0.5;exitY=1;exitDx=0;exitDy=0;" edge="1" parent="1" source="Ysg3iqIvXeeo9fuWZfi6-2" target="Ysg3iqIvXeeo9fuWZfi6-1">
          <mxGeometry width="50" height="50" relative="1" as="geometry">
            <mxPoint x="390" y="410" as="sourcePoint" />
            <mxPoint x="440" y="360" as="targetPoint" />
            <Array as="points">
              <mxPoint x="620" y="480" />
              <mxPoint x="180" y="480" />
            </Array>
          </mxGeometry>
        </mxCell>
        <mxCell id="Ysg3iqIvXeeo9fuWZfi6-4" value="&lt;h1&gt;Windows Host IP:192.168.56.1 Mac:&amp;nbsp;0a:00:27:00:00:05&lt;/h1&gt;" style="text;strokeColor=none;align=center;fillColor=none;html=1;verticalAlign=middle;whiteSpace=wrap;rounded=0;" vertex="1" parent="1">
          <mxGeometry x="70" y="20" width="220" height="220" as="geometry" />
        </mxCell>
        <mxCell id="Ysg3iqIvXeeo9fuWZfi6-5" value="&lt;h1&gt;OpenWRT Guest (VM) IP:192.168.56.2 Mac:&amp;nbsp;08:00:27:fc:f1:76&lt;/h1&gt;" style="text;strokeColor=none;align=center;fillColor=none;html=1;verticalAlign=middle;whiteSpace=wrap;rounded=0;" vertex="1" parent="1">
          <mxGeometry x="510" y="20" width="220" height="220" as="geometry" />
        </mxCell>
        <mxCell id="Ysg3iqIvXeeo9fuWZfi6-6" value="&lt;h1&gt;ICMP/ARP Packets&lt;/h1&gt;" style="text;strokeColor=none;align=center;fillColor=none;html=1;verticalAlign=middle;whiteSpace=wrap;rounded=0;" vertex="1" parent="1">
          <mxGeometry x="220" y="490" width="360" height="40" as="geometry" />
        </mxCell>
      </root>
    </mxGraphModel>
  </diagram>
</mxfile>
